<svg width="73" height="72" viewBox="0 0 73 72" fill="none" xmlns="http://www.w3.org/2000/svg">
<g clip-path="url(#clip0)">
<path d="M72.1455 36.9409L64.3474 25.4547L72.1455 13.9686C72.51 13.4207 72.5986 12.7369 72.3864 12.1147C72.1723 11.4926 71.6819 11.0044 71.0578 10.7985L45.6049 2.36107C44.6943 2.05409 43.7097 2.40016 43.1824 3.19117L36.4999 13.2147L29.8175 3.19117C29.286 2.39608 28.2931 2.05198 27.3949 2.36107L1.942 10.7985C1.31791 11.0045 0.827557 11.4928 0.613387 12.1147C0.401185 12.7369 0.489778 13.4207 0.854416 13.9687L8.65257 25.4549L0.854557 36.9409C0.489919 37.4888 0.401326 38.1728 0.613527 38.7949C0.827698 39.417 1.31805 39.9053 1.94214 40.1111L27.3951 48.5486C28.2908 48.8498 29.2873 48.5136 29.8176 47.7185L36.5 37.6949L43.1825 47.7185C43.7132 48.5144 44.7102 48.8496 45.605 48.5486L71.0579 40.1111C71.682 39.9051 72.1724 39.4169 72.3866 38.7949C72.5988 38.1728 72.5102 37.4889 72.1455 36.9409ZM36.5 31.6696L17.8557 25.4549L36.5 19.2402L55.1444 25.4549L36.5 31.6696Z" fill="black"/>
<path d="M46.9397 52.551C44.2847 53.4417 41.2829 52.4758 39.6722 50.0584L36.5002 45.3003L33.3277 50.0584C31.7202 52.4711 28.722 53.4459 26.05 52.5468L9.07837 46.89V59.2045C9.07837 60.1129 9.65929 60.9184 10.5203 61.2047L35.8203 69.6381C35.8965 69.6648 35.9727 69.6855 36.0489 69.7019C36.0489 69.7019 36.051 69.7019 36.051 69.704H36.0531C36.2015 69.735 36.3518 69.7514 36.5002 69.7514C36.6588 69.7514 36.8153 69.7328 36.9718 69.6978C37.0419 69.6814 37.1098 69.6628 37.1778 69.6402L62.4799 61.2049C63.3408 60.9184 63.9217 60.1129 63.9217 59.2045V46.8903L46.9397 52.551Z" fill="black"/>
</g>
<defs>
<clipPath id="clip0">
<rect width="72" height="72" fill="white" transform="translate(0.5)"/>
</clipPath>
</defs>
</svg>
