<svg width="42" height="42" viewBox="0 0 42 42" fill="none" xmlns="http://www.w3.org/2000/svg">
<path fill-rule="evenodd" clip-rule="evenodd" d="M9.92591 8.20315C10.941 8.20315 11.7716 7.37266 11.7716 6.35744V4.51174V2.66604C11.7716 1.6509 10.941 0.820335 9.92591 0.820335C8.91077 0.820335 8.0802 1.65082 8.0802 2.66604V4.51174V6.35744C8.0802 7.37258 8.91077 8.20315 9.92591 8.20315Z" fill="#CFD3DF"/>
<path fill-rule="evenodd" clip-rule="evenodd" d="M15.463 6.35742C15.463 7.37256 16.2936 8.20312 17.3087 8.20312C18.3239 8.20312 19.1544 7.37264 19.1544 6.35742V4.51172V2.66602C19.1544 1.65088 18.3239 0.820312 17.3087 0.820312C16.2936 0.820312 15.463 1.6508 15.463 2.66602V4.51172V6.35742Z" fill="#CFD3DF"/>
<path fill-rule="evenodd" clip-rule="evenodd" d="M22.8457 6.35741C22.8457 7.37255 23.6763 8.20312 24.6914 8.20312C25.7065 8.20312 26.5371 7.37263 26.5371 6.35741V4.51171V2.66601C26.5371 1.65087 25.7065 0.820305 24.6914 0.820305C23.6763 0.820305 22.8457 1.65079 22.8457 2.66601V4.51171V6.35741Z" fill="#CFD3DF"/>
<path fill-rule="evenodd" clip-rule="evenodd" d="M30.2285 4.51171V6.35741C30.2285 7.37255 31.0591 8.20312 32.0742 8.20312C33.0894 8.20312 33.9199 7.37263 33.9199 6.35741V4.51171V2.66601C33.9199 1.65087 33.0894 0.820305 32.0742 0.820305C31.0591 0.820305 30.2285 1.65079 30.2285 2.66601V4.51171Z" fill="#CFD3DF"/>
<path fill-rule="evenodd" clip-rule="evenodd" d="M32.0742 8.2031C31.059 8.2031 30.2285 7.37262 30.2285 6.35741V4.51171H26.5371V6.35741C26.5371 7.37254 25.7065 8.2031 24.6914 8.2031C23.6763 8.2031 22.8457 7.37262 22.8457 6.35741V4.51171H19.1543V6.35741C19.1543 7.37254 18.3237 8.2031 17.3086 8.2031C16.2935 8.2031 15.4629 7.37262 15.4629 6.35741V4.51171H11.7715V6.35741C11.7715 7.37254 10.941 8.2031 9.92583 8.2031C8.9107 8.2031 8.08013 7.37262 8.08013 6.35741V4.51171H5.74217C3.03515 4.51171 0.820312 6.72655 0.820312 9.43357V36.2578C0.820312 38.9649 3.03523 41.1797 5.74217 41.1797H36.2578C38.9647 41.1797 41.1797 38.9648 41.1797 36.2578V9.43357C41.1797 6.72671 38.9649 4.51171 36.2578 4.51171H33.9199V6.35741C33.9199 7.37254 33.0893 8.2031 32.0742 8.2031ZM5.74217 11.8944H36.2578C36.9272 11.8944 37.4883 12.4555 37.4883 13.1249V36.2578C37.4883 36.9271 36.9271 37.4882 36.2578 37.4882H5.74217C5.0728 37.4882 4.5117 36.9271 4.5117 36.2578V13.1249C4.5117 12.4554 5.07271 11.8944 5.74217 11.8944Z" fill="#C9D467"/>
<path fill-rule="evenodd" clip-rule="evenodd" d="M36.2579 11.8944H5.74218C5.07273 11.8944 4.51172 12.4554 4.51172 13.1249V36.2578C4.51172 36.9272 5.07281 37.4883 5.74218 37.4883H36.2579C36.9272 37.4883 37.4883 36.9272 37.4883 36.2578V13.1249C37.4883 12.4555 36.9272 11.8944 36.2579 11.8944ZM23.4207 21.8988L27.2938 22.6203C27.8505 22.7232 28.0479 23.4011 27.6677 23.7911L24.9921 26.5566L25.503 30.4657C25.5772 31.0344 24.9729 31.4353 24.4807 31.1678L21.0501 29.4905L17.4866 31.1861C16.9885 31.4222 16.4165 31.0088 16.5005 30.4478L17.0384 26.6466L14.3284 23.7857C13.9417 23.3785 14.1723 22.7114 14.7132 22.6176L18.506 21.9527L20.3895 18.4914C20.6568 18.0004 21.3621 18.0132 21.6176 18.4997L23.4207 21.8988Z" fill="white"/>
<path fill-rule="evenodd" clip-rule="evenodd" d="M23.4208 21.8988L21.6176 18.4996C21.3621 18.0131 20.6568 18.0003 20.3895 18.4914L18.506 21.9526L14.7132 22.6176C14.1723 22.7114 13.9417 23.3785 14.3284 23.7857L17.0383 26.6467L16.5004 30.4479C16.4165 31.0089 16.9885 31.4222 17.4866 31.1862L21.05 29.4906L24.4806 31.1679C24.9729 31.4354 25.5771 31.0345 25.503 30.4657L24.992 26.5566L27.6677 23.7912C28.0479 23.4011 27.8504 22.7232 27.2938 22.6203L23.4208 21.8988Z" fill="#FFEA60"/>
<path d="M36.2578 3.69139H34.7402V2.66601C34.7402 1.19601 33.5443 0 32.0742 0C30.6041 0 29.4082 1.19593 29.4082 2.66601V3.69139H29.4081H27.3574V2.66601C27.3574 1.19601 26.1615 0 24.6914 0C23.2213 0 22.0254 1.19593 22.0254 2.66601V3.69139H22.0253H19.9746V2.66601C19.9746 1.19601 18.7786 0 17.3086 0C15.8386 0 14.6426 1.19593 14.6426 2.66601V3.69139H12.5919V2.66601C12.5919 1.19601 11.3959 0 9.92591 0C8.45591 0 7.2599 1.19593 7.2599 2.66601V3.69139H5.74217C2.57594 3.69139 0 6.26733 0 9.43356V36.2578C0 39.4241 2.57594 42 5.74217 42H36.2578C39.4241 42 41.9999 39.4241 41.9999 36.2578V9.43356C41.9999 6.26733 39.4241 3.69139 36.2578 3.69139ZM31.0488 2.66601C31.0488 2.10065 31.5087 1.64062 32.0742 1.64062C32.6396 1.64062 33.0996 2.10057 33.0996 2.66601V6.3574C33.0996 6.92284 32.6396 7.38278 32.0742 7.38278C31.5087 7.38278 31.0488 6.92284 31.0488 6.3574V2.66601ZM23.666 2.66601C23.666 2.10065 24.126 1.64062 24.6914 1.64062C25.2568 1.64062 25.7168 2.10057 25.7168 2.66601V6.3574C25.7168 6.92284 25.2568 7.38278 24.6914 7.38278C24.126 7.38278 23.666 6.92284 23.666 6.3574V2.66601ZM16.2832 2.66601C16.2832 2.10065 16.7432 1.64062 17.3086 1.64062C17.874 1.64062 18.334 2.10057 18.334 2.66601V6.3574C18.334 6.92284 17.874 7.38278 17.3086 7.38278C16.7432 7.38278 16.2832 6.92284 16.2832 6.3574V2.66601ZM8.90044 2.66601C8.90044 2.10065 9.36038 1.64062 9.92582 1.64062C10.4913 1.64062 10.9512 2.10057 10.9512 2.66601V6.3574C10.9512 6.92284 10.4913 7.38278 9.92582 7.38278C9.36038 7.38278 8.90044 6.92284 8.90044 6.3574V2.66601ZM40.3593 36.2578C40.3593 38.5194 38.5193 40.3594 36.2578 40.3594H5.74217C3.48057 40.3594 1.64062 38.5194 1.64062 36.2578V9.43356C1.64062 7.17196 3.48057 5.33201 5.74217 5.33201H7.25974V6.3574C7.25974 7.82739 8.45575 9.0234 9.92574 9.0234C11.3957 9.0234 12.5917 7.82739 12.5917 6.3574V5.33201H14.6425V6.3574C14.6425 7.82739 15.8385 9.0234 17.3085 9.0234C18.7785 9.0234 19.9745 7.82739 19.9745 6.3574V5.33201H22.0253H22.0254V6.3574C22.0254 7.82739 23.2213 9.0234 24.6914 9.0234C26.1615 9.0234 27.3574 7.82739 27.3574 6.3574V5.33201H29.4081H29.4082V6.3574C29.4082 7.82739 30.6041 9.0234 32.0742 9.0234C33.5443 9.0234 34.7402 7.82739 34.7402 6.3574V5.33201H36.2578C38.5193 5.33201 40.3593 7.17196 40.3593 9.43356V36.2578Z" fill="#70B421"/>
<path d="M36.2579 11.0742H17.3086C16.8556 11.0742 16.4883 11.4415 16.4883 11.8945C16.4883 12.3476 16.8556 12.7148 17.3086 12.7148H36.2579C36.4725 12.7148 36.668 12.9103 36.668 13.125V36.2579C36.668 36.4726 36.4725 36.668 36.2579 36.668H5.74218C5.5275 36.668 5.33202 36.4726 5.33202 36.2579V13.125C5.33202 12.9103 5.5275 12.7148 5.74218 12.7148H9.92584C10.3789 12.7148 10.7461 12.3476 10.7461 11.8945C10.7461 11.4415 10.3789 11.0742 9.92584 11.0742H5.74218C4.61138 11.0742 3.69141 11.9942 3.69141 13.125V36.2579C3.69141 37.3887 4.61138 38.3087 5.74218 38.3087H36.2579C37.3886 38.3087 38.3086 37.3887 38.3086 36.2579V13.125C38.3086 11.9941 37.3887 11.0742 36.2579 11.0742Z" fill="#70B421"/>
<path d="M13.3934 22.8289C13.2172 23.361 13.3475 23.944 13.7328 24.3499L16.1707 26.9237L15.689 30.3266C15.6055 30.8845 15.834 31.4391 16.2853 31.7739C16.5522 31.972 16.8695 32.0735 17.1893 32.0735C17.4099 32.0735 17.6318 32.0252 17.839 31.9269L21.0451 30.4013L24.1075 31.8986C24.6065 32.161 25.2039 32.1255 25.6716 31.8045C26.1433 31.4808 26.3904 30.9271 26.3163 30.3594L25.8566 26.8426L28.2549 24.3638C28.6457 23.963 28.7826 23.3806 28.612 22.8442C28.4425 22.3105 27.9944 21.9157 27.444 21.8139L23.9598 21.1649L22.3437 18.1181C22.0836 17.623 21.5731 17.3128 21.0115 17.3086C20.4502 17.3052 19.9366 17.6074 19.6688 18.0993L17.9745 21.213L14.5728 21.8094C14.022 21.9051 13.57 22.2957 13.3934 22.8289ZM18.6478 22.7607C18.894 22.7175 19.1071 22.5644 19.2267 22.3448L21 19.0858L22.6961 22.2833C22.8132 22.5041 23.0247 22.6595 23.2706 22.7054L26.9193 23.3851L24.4025 25.9862C24.2287 26.1659 24.1462 26.4151 24.1786 26.663L24.6596 30.3424L21.4103 28.7537C21.1858 28.6439 20.9233 28.6425 20.6976 28.7499L17.3433 30.3461L17.8506 26.7618C17.8856 26.5142 17.8059 26.2643 17.6339 26.0828L15.0798 23.3863L18.6478 22.7607Z" fill="#88C540"/>
<path d="M13.6176 12.7148C14.0706 12.7148 14.4379 12.3476 14.4379 11.8945C14.4379 11.4415 14.0706 11.0742 13.6176 11.0742H13.617C13.1639 11.0742 12.797 11.4415 12.797 11.8945C12.797 12.3476 13.1645 12.7148 13.6176 12.7148Z" fill="#70B421"/>
</svg>
