<svg width="72" height="72" viewBox="0 0 72 72" fill="none" xmlns="http://www.w3.org/2000/svg">
<path d="M31.2812 11.25H11.1719V6.75C11.1719 5.5125 12.1773 4.5 13.4062 4.5H29.0469C30.2758 4.5 31.2812 5.5125 31.2812 6.75V11.25ZM29.8289 42.75H12.6242C8.71406 42.75 5.58594 39.6 5.58594 35.6625V20.5875C5.58594 16.65 8.71406 13.5 12.6242 13.5H29.8289C33.7391 13.5 36.8672 16.65 36.8672 20.5875V35.6625C36.8672 39.6 33.7391 42.75 29.8289 42.75V42.75ZM30.1641 27V23.625H25.6953V27C25.6953 27.675 25.2484 28.125 24.5781 28.125H23.4609V20.25H18.9922V25.875H17.875C17.2047 25.875 16.7578 25.425 16.7578 24.75V21.375H12.2891V24.75C12.2891 27.9 14.7469 30.375 17.875 30.375H18.9922V36H23.4609V32.625H24.5781C27.7062 32.625 30.1641 30.15 30.1641 27ZM60.3281 46.4625V39.9375C60.3281 34.0875 55.5242 29.25 49.7148 29.25C43.9055 29.25 39.1016 34.0875 39.1016 39.9375V56.8125C39.1016 60.1875 36.3086 63 32.957 63H29.6055C26.2539 63 23.4609 60.1875 23.4609 56.8125V51.4125C26.0305 50.5125 27.9297 48.0375 27.9297 45H14.5234C14.5234 47.925 16.4227 50.4 18.9922 51.4125V56.8125C18.9922 62.6625 23.7961 67.5 29.6055 67.5H32.957C38.7664 67.5 43.5703 62.6625 43.5703 56.8125V39.9375C43.5703 36.5625 46.3633 33.75 49.7148 33.75C53.0664 33.75 55.8594 36.5625 55.8594 39.9375V46.4625C52.0609 47.475 49.1562 50.9625 49.1562 55.125V59.625C49.1562 60.8625 50.1617 61.875 51.3906 61.875H52.5078V66.375H56.9766V61.875H59.2109V66.375H63.6797V61.875H64.7969C66.0258 61.875 67.0312 60.8625 67.0312 59.625V55.125C67.0312 50.9625 64.1266 47.475 60.3281 46.4625Z" fill="black"/>
</svg>
