<svg width="36" height="42" viewBox="0 0 36 42" fill="none" xmlns="http://www.w3.org/2000/svg">
<path d="M14.2941 27.6907V28.4118C14.2941 30.4585 15.9533 32.1177 18 32.1177C20.0467 32.1177 21.7059 30.4585 21.7059 28.4118V27.6907C20.5339 28.1642 19.2746 28.4118 18 28.4118C16.7254 28.4118 15.4661 28.1643 14.2941 27.6907Z" fill="#141A2A"/>
<path d="M8.11763 19.7647H9.35292C10.0351 19.7647 10.5882 19.2116 10.5882 18.5294C10.5882 22.6226 13.907 25.9412 18 25.9412C21.6571 25.9412 24.7182 23.2853 25.3089 19.7647H18C17.3178 19.7647 16.7647 19.2116 16.7647 18.5294C16.7647 17.8472 17.3178 17.2941 18 17.2941H25.4118V19.7647H27.8823C29.9259 19.7647 31.5882 18.1023 31.5882 16.0588V13.5881C31.5881 6.0956 25.4925 0 18 0C10.5074 0 4.41174 6.09569 4.41174 13.5882V16.0588C4.41174 18.1023 6.0742 19.7647 8.11763 19.7647ZM18 2.47059C23.7797 2.47059 28.5427 6.90415 29.0686 12.5488C28.6959 12.4225 28.2972 12.3529 27.8823 12.3529H26.6471C25.9648 12.3529 25.4118 12.906 25.4118 13.5882C25.4118 9.49481 22.0934 6.17647 18 6.17647C13.9065 6.17647 10.5882 9.49481 10.5882 13.5882C10.5882 12.906 10.0351 12.3529 9.35292 12.3529H8.11763C7.70273 12.3529 7.30406 12.4225 6.93133 12.5488C7.45716 6.90415 12.2202 2.47059 18 2.47059Z" fill="#88C540"/>
<path d="M24.1765 28.4123C24.1762 31.3949 22.0509 33.8901 19.2353 34.4639V37.0239C19.2353 37.6891 18.7241 38.2614 18.0597 38.2927C17.3503 38.3262 16.7647 37.7608 16.7647 37.0588V34.464C13.9491 33.8901 11.8238 31.3948 11.8235 28.4124C5.67966 28.4346 0.705872 33.4216 0.705872 39.5707V40.7647C0.705872 41.4469 1.25895 42 1.94117 42H6.88234V35.8585C6.88234 35.1933 7.39351 34.6209 8.05785 34.5896C8.76732 34.5562 9.35293 35.1215 9.35293 35.8235V42H26.6471V35.8585C26.6471 35.1933 27.1582 34.6209 27.8226 34.5896C28.532 34.5562 29.1176 35.1215 29.1176 35.8235V42H34.0588C34.741 42 35.2941 41.4469 35.2941 40.7647V39.5706C35.2941 33.4215 30.3202 28.4345 24.1765 28.4123Z" fill="#70B421"/>
</svg>
