<svg width="73" height="72" viewBox="0 0 73 72" fill="none" xmlns="http://www.w3.org/2000/svg">
<g clip-path="url(#clip0)">
<path d="M10.4846 36.0002C10.4846 25.0484 17.2193 15.8056 26.5551 11.9465H26.5565L29.5518 6.56622C16.3312 9.65913 6.26587 21.5651 6.26587 36.0002C6.26587 49.5835 15.25 61.1774 27.7418 64.9447L28.0596 60.6163C17.6745 57.0604 10.4846 47.2392 10.4846 36.0002Z" fill="black"/>
<path d="M45.258 7.0556L44.9402 11.384C55.3253 14.9399 62.5153 24.761 62.5153 36.0002C62.5153 46.9412 55.7885 56.1915 46.4448 60.0538H46.4434L43.4481 65.4341C56.6688 62.3412 66.7339 50.4352 66.7339 36.0002C66.7339 22.4171 57.75 10.8228 45.258 7.0556Z" fill="black"/>
<path d="M56.5995 31.0091C56.2206 30.3645 55.5288 29.9686 54.7809 29.9686H39.3463L41.3796 2.26424C41.4521 1.27719 40.8287 0.372551 39.8806 0.0889108C38.9325 -0.195292 37.9146 0.218708 37.4331 1.08341L16.3761 38.8958C16.0123 39.5491 16.0216 40.3461 16.4004 40.9908C16.7793 41.6354 17.4713 42.0313 18.219 42.0313H33.6537L31.6203 69.7358C31.5478 70.7229 32.1712 71.6274 33.1195 71.911C34.0753 72.1973 35.0896 71.7738 35.5669 70.9165L56.6238 33.1043C56.9876 32.4509 56.9783 31.6539 56.5995 31.0091Z" fill="black"/>
</g>
<defs>
<clipPath id="clip0">
<rect width="72" height="72" fill="white" transform="translate(0.5)"/>
</clipPath>
</defs>
</svg>
