<svg width="73" height="72" viewBox="0 0 73 72" fill="none" xmlns="http://www.w3.org/2000/svg">
<g clip-path="url(#clip0)">
<path d="M59.4316 8.06535C59.8562 8.63765 60.5509 9.00466 61.3102 9.00466C62.5175 9.00466 63.4967 9.98361 63.4967 11.1912C63.4967 12.4009 64.4294 13.4454 65.6383 13.5015C66.9252 13.5614 67.9964 12.5386 67.9964 11.2545C67.9964 9.9022 69.0344 9.00466 70.183 9.00466C71.3927 9.00466 72.4372 8.07196 72.4933 6.86309C72.5505 5.64199 71.6172 4.50498 70.183 4.50498C68.9751 4.50498 67.9964 3.5263 67.9964 2.31842C67.9964 1.71237 67.763 1.14991 67.3791 0.730878C66.005 -0.76906 63.4967 0.214962 63.4967 2.25514C63.4967 3.50001 62.4899 4.50498 61.2469 4.50498C59.3778 4.50484 58.3646 6.63656 59.4316 8.06535Z" fill="black"/>
<path d="M12.8118 48.3767C11.6043 48.3767 10.6255 47.3979 10.6255 46.1904C10.6255 44.9791 9.69447 43.9367 8.48448 43.8796C7.19251 43.8187 6.12581 44.8483 6.12581 46.1269C6.12581 47.4765 5.08948 48.3767 3.93953 48.3767C2.72813 48.3767 1.68576 49.3077 1.62867 50.5177C1.56778 51.8097 2.59736 52.8764 3.87597 52.8764C5.22559 52.8764 6.12581 53.9127 6.12581 55.0627C6.12581 56.2741 7.05682 57.3165 8.26681 57.3735C9.55878 57.4344 10.6255 56.4048 10.6255 55.1262C10.6255 53.8838 11.6327 52.8764 12.8753 52.8764C14.1539 52.8764 15.1835 51.8098 15.1226 50.5177C15.0657 49.3077 14.0233 48.3767 12.8118 48.3767V48.3767Z" fill="black"/>
<path d="M32.1672 10.1358C32.4719 9.94329 32.5816 9.549 32.4182 9.22784C29.8235 4.12985 24.6675 0.388647 18.2442 0.0276885C10.7832 -0.411592 3.56419 4.40109 1.26078 11.8675C-2.08051 22.7271 6.03761 33.7528 17.3752 33.7528C17.4638 33.7528 17.6639 33.749 17.8729 33.7433C18.2352 33.7336 18.5322 33.4495 18.5543 33.0876C19.1435 23.4631 24.3998 15.0421 32.1672 10.1358V10.1358ZM17.3752 11.2544C14.2733 11.2544 11.7506 13.777 11.7506 16.879C11.7506 18.122 10.7438 19.1288 9.50081 19.1288C8.25777 19.1288 7.25097 18.122 7.25097 16.879C7.25097 11.2966 11.7928 6.7547 17.3752 6.7547C18.6183 6.7547 19.6251 7.76151 19.6251 9.00454C19.6251 10.2476 18.6183 11.2544 17.3752 11.2544V11.2544Z" fill="black"/>
<path d="M31.9991 47.2518C25.1713 47.2518 19.625 52.7851 19.625 59.6259C19.625 66.4598 25.1652 72 31.9991 72C37.2722 72 41.7746 68.7026 43.5562 64.0566C46.6377 56.0478 40.7446 47.2518 31.9991 47.2518V47.2518ZM33.8144 55.3329C33.4038 55.8897 32.7444 56.2511 31.9991 56.2511C30.1431 56.2511 28.6243 57.7623 28.6243 59.6259C28.6243 60.8689 27.6175 61.8757 26.3745 61.8757C25.1315 61.8757 24.1247 60.8689 24.1247 59.6259C24.1247 55.2955 27.6461 51.7514 31.9991 51.7514C33.8575 51.7514 34.8883 53.8661 33.8144 55.3329Z" fill="black"/>
<path d="M48.8656 58.9005C48.8926 59.2897 49.2316 59.5843 49.6207 59.5552C62.6235 58.5835 72.7039 47.5659 72.4948 34.6161C72.4948 21.4833 61.6102 10.1295 47.748 10.1295C30.2399 10.1295 18.5235 27.7394 24.5956 43.6385C24.7365 44.0075 25.1567 44.1897 25.5204 44.0361C27.3847 43.2489 29.653 42.752 31.9991 42.752C40.9694 42.752 48.3085 49.7423 48.8402 58.5957C48.8402 58.5959 48.8532 58.721 48.8656 58.9005ZM45.4982 21.3786C38.0554 21.3786 31.9991 27.4349 31.9991 34.8777C31.9991 36.1207 30.9923 37.1275 29.7493 37.1275C28.5063 37.1275 27.4995 36.1207 27.4995 34.8777C27.4995 24.9953 35.5293 16.879 45.4982 16.879C46.7412 16.879 47.748 17.8858 47.748 19.1288C47.748 20.3718 46.7412 21.3786 45.4982 21.3786Z" fill="black"/>
</g>
<defs>
<clipPath id="clip0">
<rect width="72" height="72" fill="white" transform="translate(0.5)"/>
</clipPath>
</defs>
</svg>
