<svg width="36" height="42" viewBox="0 0 36 42" fill="none" xmlns="http://www.w3.org/2000/svg">
<path d="M34.0763 28.0473C32.9474 31.1069 31.2401 33.7671 29.0012 35.9534C26.4528 38.4419 23.1158 40.4193 19.0828 41.8299C18.9505 41.876 18.8124 41.9138 18.6736 41.9417C18.4903 41.9779 18.3038 41.9975 18.1189 42H18.0827C17.8857 42 17.6876 41.9802 17.4912 41.9417C17.3525 41.9138 17.2163 41.876 17.0846 41.8308C13.0468 40.4225 9.70561 38.4461 7.15463 35.9576C4.91479 33.7713 3.20783 31.1126 2.08054 28.0531C0.0307195 22.4904 0.147358 16.3624 0.241245 11.4379L0.242847 11.3623C0.261753 10.9557 0.273929 10.5285 0.280659 10.0568C0.314945 7.74107 2.15616 5.82519 4.47227 5.69605C9.30122 5.42656 13.0368 3.85163 16.2287 0.740525L16.2566 0.714891C16.7866 0.228791 17.4544 -0.00961262 18.1189 0.0003209C18.7598 0.00865223 19.3981 0.246735 19.9092 0.714891L19.9365 0.740525C23.1289 3.85163 26.8646 5.42656 31.6935 5.69605C34.0096 5.82519 35.8508 7.74107 35.8851 10.0568C35.8919 10.5317 35.904 10.9582 35.9229 11.3623L35.9239 11.3943C36.0175 16.3281 36.1335 22.4683 34.0763 28.0473Z" fill="#88C540"/>
<path d="M34.0762 28.0473C32.9474 31.1069 31.2401 33.7671 29.0012 35.9534C26.4528 38.4419 23.1158 40.4193 19.0828 41.8299C18.9504 41.876 18.8123 41.9138 18.6736 41.9417C18.4903 41.9779 18.3038 41.9975 18.1189 42V0.000320435C18.7598 0.00865176 19.3981 0.246735 19.9092 0.71489L19.9364 0.740525C23.1289 3.85163 26.8645 5.42656 31.6935 5.69605C34.0096 5.82518 35.8508 7.74106 35.8851 10.0568C35.8918 10.5317 35.904 10.9582 35.9229 11.3623L35.9239 11.3943C36.0174 16.3281 36.1334 22.4683 34.0762 28.0473Z" fill="#70B421"/>
<path d="M28.5494 21C28.5494 26.7592 23.8733 31.4471 18.1189 31.4677H18.082C12.3107 31.4677 7.61438 26.7717 7.61438 21C7.61438 15.2287 12.3107 10.5327 18.082 10.5327H18.1189C23.8733 10.5532 28.5494 15.2412 28.5494 21Z" fill="white"/>
<path d="M28.5494 21C28.5494 26.7592 23.8733 31.4471 18.1189 31.4677V10.5327C23.8733 10.5532 28.5494 15.2412 28.5494 21Z" fill="#E1EBF0"/>
<path d="M22.8331 19.4927L18.1189 24.2076L17.1002 25.2262C16.8596 25.4669 16.544 25.587 16.2286 25.587C15.913 25.587 15.5977 25.4669 15.3567 25.2262L13.1666 23.0351C12.6853 22.5538 12.6853 21.7742 13.1666 21.2926C13.6472 20.8113 14.4278 20.8113 14.9091 21.2926L16.2286 22.6121L21.0906 17.7502C21.5719 17.2686 22.3525 17.2686 22.8331 17.7502C23.3144 18.2315 23.3144 19.012 22.8331 19.4927Z" fill="#141A2B"/>
<path d="M22.8331 19.4927L18.1189 24.2076V20.7216L21.0906 17.7502C21.5719 17.2686 22.3525 17.2686 22.8331 17.7502C23.3144 18.2315 23.3144 19.012 22.8331 19.4927Z" fill="#141A2B"/>
</svg>
