<svg width="72" height="72" viewBox="0 0 72 72" fill="none" xmlns="http://www.w3.org/2000/svg">
<g clip-path="url(#clip0)">
<path d="M28.9672 19.9001C28.9672 18.7358 29.9122 17.7908 31.0765 17.7908C32.2423 17.7908 33.1873 18.7358 33.1873 19.9001V42.047H38.8123V19.9001C38.8123 18.7358 39.7573 17.7908 40.9231 17.7908C42.0875 17.7908 43.0325 18.7358 43.0325 19.9001V42.047H54.1447V15.2694C54.1447 10.5669 51.1564 6.37201 46.7112 4.82935C43.4445 3.69591 40.6376 2.41904 38.1289 0.924197L37.0798 0.298415C36.4164 -0.0995532 35.5833 -0.0995532 34.9198 0.298415L33.8694 0.924197C31.362 2.41904 28.5551 3.69591 25.2898 4.82935C20.8433 6.3706 17.855 10.5669 17.855 15.2694V42.047H28.9672V19.9001Z" fill="black"/>
<path d="M17.855 46.2657H54.1447V52.8751H17.855V46.2657Z" fill="black"/>
<path d="M17.855 61.5937C17.855 62.7581 18.8014 63.7031 19.9658 63.7031H23.4911V69.8906C23.4911 71.0556 24.4357 72 25.6009 72C26.7661 72 27.7107 71.0556 27.7107 69.8906V63.7031H44.289V69.8906C44.289 71.0556 45.2335 72 46.3988 72C47.564 72 48.5086 71.0556 48.5086 69.8906V63.7031H52.0339C53.1983 63.7031 54.1447 62.7581 54.1447 61.5937V57.0938H17.855V61.5937Z" fill="black"/>
<path d="M15.1875 52.8751C14.0217 52.8751 13.0781 53.8201 13.0781 54.9845C13.0781 56.1489 14.0217 57.0939 15.1875 57.0939H17.8552V52.8751H15.1875Z" fill="black"/>
<path d="M56.8127 52.8751H54.145V57.0939H56.8127C57.9785 57.0939 58.9221 56.1489 58.9221 54.9845C58.9221 53.8201 57.9785 52.8751 56.8127 52.8751Z" fill="black"/>
</g>
<defs>
<clipPath id="clip0">
<rect width="72" height="72" fill="white"/>
</clipPath>
</defs>
</svg>
