<svg width="18" height="22" viewBox="0 0 18 22" fill="none" xmlns="http://www.w3.org/2000/svg">
<path d="M4.26375 21.5H13.7363C15.2678 21.5 16.5488 20.3525 16.7175 18.8307L17.9955 7.3325C18.0195 7.12025 17.9513 6.90875 17.8088 6.74975C17.667 6.59075 17.4638 6.5 17.25 6.5H13.5V5C13.5 2.51825 11.4818 0.5 9.00001 0.5C6.51825 0.5 4.5 2.51825 4.5 5V6.5H0.750001C0.536251 6.5 0.333001 6.59075 0.191251 6.74975C0.0487512 6.90875 -0.0187489 7.121 0.00450113 7.3325L1.28175 18.8307C1.45125 20.3525 2.733 21.5 4.26375 21.5ZM6 5C6 3.3455 7.3455 2 9.00001 2C10.6545 2 12 3.3455 12 5V6.5H6V5ZM4.5 8V9.5C4.086 9.5 3.75 9.836 3.75 10.25C3.75 10.664 4.086 11 4.5 11H6C6.414 11 6.75 10.664 6.75 10.25C6.75 9.836 6.414 9.5 6 9.5V8H12V9.5C11.586 9.5 11.25 9.836 11.25 10.25C11.25 10.664 11.586 11 12 11H13.5C13.914 11 14.25 10.664 14.25 10.25C14.25 9.836 13.914 9.5 13.5 9.5V8H16.4123L15.2265 18.6658C15.1425 19.4263 14.5013 20 13.7363 20H4.26375C3.498 20 2.8575 19.4263 2.77275 18.6658L1.58775 8H4.5Z" fill="#939CB3"/>
</svg>
