<svg xmlns="http://www.w3.org/2000/svg" width="18" height="18" fill="none">
    <g clip-path="url(#A)" fill="#000000">
        <path d="M8.302.018L3.931.036a1.57 1.57 0 0 0-1.367.808L.279 4.973l7.583-.018.44-4.937zm9.41 4.92L15.4.809A1.58 1.58 0 0 0 14.024 0L9.652.018l.459 4.937 7.601-.017zm.279 1.337l-8.32.027h-1.35L0 6.32v10.177a1.5 1.5 0 0 0 1.503 1.5l6.944-.015 8.049.015a1.5 1.5 0 0 0 1.503-1.501l-.008-10.22zm-2.241 8.912c0 .31-.252.563-.562.563h-4.875c-.31 0-.562-.252-.562-.562v-2.625c0-.31.252-.562.563-.562h4.875c.31 0 .563.252.563.563v2.625z"/>
    </g>
    <defs>
        <clipPath id="A">
            <path fill="#fff" d="M0 0h18v18H0z"/>
        </clipPath>
    </defs>
</svg>