<svg width="143" height="32" viewBox="0 0 143 32" fill="none" xmlns="http://www.w3.org/2000/svg">
<path d="M142.629 0L112.462 32H18.1345L48.6135 0H142.629Z" fill="#F3F3F3"/>
<path d="M83.5385 9.92975V11.5116H85.1382L83.5385 9.92975Z" fill="#88C540"/>
<path d="M85.1422 12.1996H83.5385V22.0345H85.1422V12.1996Z" fill="#88C540"/>
<path d="M76.6308 10.0879C75.9414 10.0887 75.2589 10.2243 74.623 10.487C73.9871 10.7497 73.4104 11.1342 72.9262 11.6183V9.92975H71.3224V22.0346H72.9262V15.4503C72.9098 14.96 72.9936 14.4716 73.1725 14.0139C73.3514 13.5563 73.6218 13.1388 73.9677 12.7863C74.3135 12.4338 74.7276 12.1536 75.1855 11.9621C75.6433 11.7707 76.1355 11.6721 76.6328 11.6721C77.1301 11.6721 77.6223 11.7707 78.0802 11.9621C78.538 12.1536 78.9522 12.4338 79.298 12.7863C79.6438 13.1388 79.9142 13.5563 80.0931 14.0139C80.272 14.4716 80.3558 14.96 80.3395 15.4503V22.0346H81.9432V15.4503C81.9582 14.0448 81.4072 12.6908 80.4113 11.6855C79.4154 10.6802 78.0557 10.1057 76.6308 10.0879Z" fill="#88C540"/>
<path d="M92.4952 10.0879C91.8051 10.0882 91.1219 10.2236 90.4853 10.4863C89.8487 10.749 89.2713 11.1338 88.7866 11.6183V9.92975H87.1829V22.0346H88.7866V15.4503C88.7703 14.96 88.854 14.4716 89.0329 14.0139C89.2119 13.5563 89.4823 13.1388 89.8281 12.7863C90.1739 12.4338 90.588 12.1536 91.0459 11.9621C91.5037 11.7707 91.996 11.6721 92.4932 11.6721C92.9905 11.6721 93.4827 11.7707 93.9406 11.9621C94.3985 12.1536 94.8126 12.4338 95.1584 12.7863C95.5042 13.1388 95.7746 13.5563 95.9535 14.0139C96.1325 14.4716 96.2162 14.96 96.1999 15.4503V22.0346H97.8036V15.4503C97.8186 14.0454 97.2682 12.6921 96.2731 11.6869C95.2781 10.6817 93.9195 10.1067 92.4952 10.0879Z" fill="#88C540"/>
<path d="M41.4205 0L11.2542 32H0L30.479 0H41.4205Z" fill="#88C540"/>
<path d="M53.8536 22.082H55.4574L53.8536 20.5002V22.082Z" fill="#979797"/>
<path d="M66.8033 10.0879H51.215C50.5646 10.0889 49.9411 10.3443 49.4811 10.7979C49.0212 11.2515 48.7624 11.8665 48.7613 12.5081V14.9203C48.7624 15.5619 49.0212 16.1768 49.4811 16.6305C49.9411 17.0841 50.5646 17.3394 51.215 17.3405H66.8033C67.0938 17.3401 67.3817 17.2879 67.6533 17.1863V19.6657C67.6523 19.8867 67.5628 20.0984 67.4044 20.2546C67.2459 20.4109 67.0314 20.4991 66.8073 20.5002H54.639L56.2427 22.082H66.8194C67.4687 22.0809 68.0912 21.826 68.5504 21.3731C69.0096 20.9202 69.268 20.3062 69.2691 19.6657V12.5081C69.2686 12.1894 69.2043 11.8739 69.0801 11.5798C68.9558 11.2856 68.774 11.0185 68.545 10.7937C68.3159 10.5689 68.0442 10.3909 67.7454 10.2698C67.4465 10.1487 67.1264 10.0869 66.8033 10.0879ZM67.6533 14.9203C67.6533 15.1427 67.5638 15.3559 67.4044 15.5131C67.245 15.6704 67.0288 15.7587 66.8033 15.7587H51.215C50.9896 15.7587 50.7734 15.6704 50.614 15.5131C50.4546 15.3559 50.365 15.1427 50.365 14.9203V12.5081C50.365 12.2857 50.4546 12.0725 50.614 11.9153C50.7734 11.758 50.9896 11.6697 51.215 11.6697H66.8033C67.0288 11.6697 67.245 11.758 67.4044 11.9153C67.5638 12.0725 67.6533 12.2857 67.6533 12.5081V14.9203Z" fill="#979797"/>
<path d="M111.576 15.5135V15.2762H111.548C111.359 13.8863 110.683 12.6057 109.635 11.6571C108.588 10.7085 107.237 10.152 105.817 10.0845C104.397 10.0169 102.998 10.4425 101.863 11.2872C100.728 12.1319 99.929 13.3423 99.6054 14.7078C99.2817 16.0734 99.4537 17.5076 100.091 18.761C100.729 20.0144 101.792 21.0077 103.095 21.5681C104.398 22.1285 105.86 22.2205 107.225 21.8282C108.59 21.4358 109.772 20.5838 110.566 19.4206L109.239 18.5348C108.659 19.3847 107.798 20.0096 106.803 20.3024C105.808 20.5951 104.74 20.5377 103.783 20.1398C102.826 19.7418 102.039 19.0282 101.557 18.1211C101.074 17.2139 100.927 16.1696 101.139 15.1668C101.351 14.1641 101.91 13.2653 102.72 12.6242C103.53 11.9831 104.541 11.6397 105.579 11.6526C106.618 11.6655 107.619 12.034 108.413 12.695C109.206 13.3561 109.742 14.2685 109.929 15.2762H102.547V16.858H111.576V16.0671H111.608C111.607 15.8822 111.597 15.6974 111.576 15.5135Z" fill="#88C540"/>
</svg>
