<svg width="42" height="42" viewBox="0 0 42 42" fill="none" xmlns="http://www.w3.org/2000/svg">
<path d="M7 3.98106V42L21.0003 38.0189V0L7 3.98106Z" fill="#C9D467"/>
<path d="M21.0004 0V38.0189L35 42V3.98106L21.0004 0Z" fill="#85C250"/>
<path d="M31.0192 8.82066C30.9291 8.82066 30.8375 8.80836 30.7465 8.78244L24.7091 7.06561C24.1804 6.91524 23.8737 6.36473 24.0241 5.83604C24.1744 5.30743 24.7249 5.00063 25.2536 5.151L31.291 6.86783C31.8197 7.01819 32.1264 7.5687 31.9761 8.09739C31.8515 8.53519 31.4527 8.82066 31.0192 8.82066Z" fill="#174461"/>
<path d="M31.0192 13.797C30.9291 13.797 30.8375 13.7847 30.7465 13.7588L24.7091 12.0419C24.1804 11.8916 23.8737 11.3411 24.0241 10.8124C24.1744 10.2837 24.7249 9.97673 25.2536 10.1273L31.291 11.8442C31.8197 11.9945 32.1264 12.545 31.9761 13.0737C31.8515 13.5115 31.4527 13.797 31.0192 13.797Z" fill="#174461"/>
<path d="M31.0192 18.7733C30.9291 18.7733 30.8375 18.761 30.7465 18.7351L24.7091 17.0183C24.1804 16.8679 23.8737 16.3174 24.0241 15.7887C24.1744 15.26 24.7249 14.9531 25.2536 15.1037L31.291 16.8205C31.8197 16.9709 32.1264 17.5214 31.9761 18.0501C31.8515 18.4878 31.4527 18.7733 31.0192 18.7733Z" fill="#174461"/>
<path d="M31.0187 35.8916V22.7542L24.9812 21.0373V34.1748L31.0187 35.8916Z" fill="#174461"/>
<path d="M10.9805 36.8871C10.5469 36.8871 10.1481 36.6016 10.0237 36.1639C9.87333 35.6351 10.18 35.0848 10.7087 34.9343L16.7469 33.2174C17.2755 33.067 17.826 33.3738 17.9765 33.9024C18.1268 34.4312 17.8201 34.9816 17.2914 35.132L11.2533 36.8489C11.1622 36.8748 11.0706 36.8871 10.9805 36.8871Z" fill="white"/>
<path d="M10.9805 8.82081C10.5469 8.82081 10.1481 8.53526 10.0237 8.09754C9.87333 7.56877 10.18 7.01842 10.7087 6.86798L16.7469 5.15107C17.2755 5.00078 17.826 5.30742 17.9765 5.83611C18.1268 6.36488 17.8201 6.91523 17.2914 7.06567L11.2533 8.78259C11.1622 8.80843 11.0706 8.82081 10.9805 8.82081Z" fill="white"/>
<path d="M10.9805 13.7971C10.5469 13.7971 10.1481 13.5115 10.0237 13.0738C9.87333 12.545 10.18 11.9947 10.7087 11.8442L16.7469 10.1273C17.2755 9.97696 17.826 10.2838 17.9765 10.8124C18.1268 11.3411 17.8201 11.8915 17.2914 12.0419L11.2533 13.7588C11.1622 13.7848 11.0706 13.7971 10.9805 13.7971Z" fill="white"/>
</svg>
