<svg width="42" height="42" viewBox="0 0 42 42" fill="none" xmlns="http://www.w3.org/2000/svg">
<path d="M36.6854 27.9415L25.3165 39.3104C24.855 39.7719 24.229 40.0312 23.5763 40.0312C22.9237 40.0312 22.2977 39.7719 21.8362 39.3104L5.37903 22.8532C5.12028 22.5945 4.92248 22.2813 4.80005 21.9365C4.67761 21.5917 4.63362 21.2239 4.67126 20.8599L5.73709 10.5568C5.79525 9.99455 6.04516 9.46949 6.44482 9.06982C6.84449 8.67016 7.36955 8.42025 7.93176 8.36209L18.2349 7.29626C18.5989 7.25862 18.9667 7.30261 19.3115 7.42505C19.6563 7.54748 19.9695 7.74528 20.2282 8.00403L36.6854 24.4612C37.1469 24.9227 37.4062 25.5487 37.4062 26.2013C37.4062 26.854 37.1469 27.48 36.6854 27.9415Z" fill="#C9D467"/>
<path d="M23.5764 37.6546C23.3824 37.6552 23.1903 37.6172 23.0111 37.543C22.8319 37.4688 22.6691 37.3598 22.5323 37.2223L21.8485 36.5384L22.7766 35.6103L23.4604 36.2941C23.4912 36.3248 23.5329 36.3421 23.5764 36.3421C23.6199 36.3421 23.6616 36.3248 23.6924 36.2941L24.3569 35.6296L25.285 36.5577L24.6205 37.2222C24.4837 37.3597 24.321 37.4687 24.1418 37.5429C23.9626 37.6172 23.7704 37.6551 23.5764 37.6546Z" fill="#FFFFFE"/>
<path d="M33.9328 27.9099L33.0047 26.9818L33.6692 26.3173C33.6999 26.2866 33.7172 26.2448 33.7172 26.2013C33.7172 26.1578 33.6999 26.1161 33.6692 26.0853L32.9854 25.4015L33.9135 24.4734L34.5973 25.1572C34.7345 25.2944 34.8432 25.4571 34.9175 25.6363C34.9917 25.8154 35.0299 26.0075 35.0299 26.2014C35.0299 26.3953 34.9917 26.5873 34.9175 26.7665C34.8432 26.9456 34.7345 27.1084 34.5973 27.2455L33.9328 27.9099Z" fill="#FFFFFE"/>
<path d="M8.06718 22.7572L7.10233 21.7923C6.94672 21.6373 6.82781 21.4494 6.75435 21.2424C6.68089 21.0354 6.65474 20.8146 6.67782 20.5961L6.77872 19.62L8.08433 19.7548L7.98335 20.731C7.98077 20.7553 7.98368 20.7798 7.99184 20.8028C8 20.8258 8.01322 20.8467 8.03051 20.8639L8.99528 21.8287L8.06718 22.7572Z" fill="#FFFFFE"/>
<path d="M38.6481 20.3438H15.7747L16.9723 6.65503C16.9902 6.45063 17.084 6.26036 17.2353 6.12175C17.3866 5.98314 17.5843 5.90625 17.7895 5.90625H39.7676C39.8814 5.90625 39.9939 5.92991 40.098 5.97572C40.2022 6.02154 40.2956 6.08851 40.3725 6.17238C40.4493 6.25625 40.5079 6.35519 40.5444 6.46291C40.581 6.57063 40.5948 6.68477 40.5848 6.79809L39.4653 19.595C39.4474 19.7994 39.3535 19.9896 39.2023 20.1283C39.051 20.2669 38.8533 20.3438 38.6481 20.3438Z" fill="#88C540"/>
<path d="M21.1641 11.1563H23.625V9.84375H21.1641C20.7726 9.84421 20.3973 9.99992 20.1205 10.2767C19.8437 10.5535 19.688 10.9288 19.6875 11.3203V12.3047C19.688 12.6962 19.8437 13.0715 20.1205 13.3483C20.3973 13.6251 20.7726 13.7808 21.1641 13.7813H22.1484C22.1919 13.7813 22.2337 13.7985 22.2644 13.8293C22.2952 13.8601 22.3125 13.9018 22.3125 13.9453V14.9297C22.3125 14.9732 22.2952 15.0149 22.2644 15.0457C22.2337 15.0765 22.1919 15.0938 22.1484 15.0938H19.6875V16.4063H22.1484C22.5399 16.4058 22.9152 16.2501 23.192 15.9733C23.4688 15.6965 23.6245 15.3212 23.625 14.9297V13.9453C23.6245 13.5538 23.4688 13.1785 23.192 12.9017C22.9152 12.6249 22.5399 12.4692 22.1484 12.4688H21.1641C21.1206 12.4688 21.0788 12.4515 21.0481 12.4207C21.0173 12.3899 21 12.3482 21 12.3047V11.3203C21 11.2768 21.0173 11.2351 21.0481 11.2043C21.0788 11.1735 21.1206 11.1563 21.1641 11.1563Z" fill="#FFFBFA"/>
<path d="M28.875 16.4062V11.8125C28.875 11.2904 28.6676 10.7896 28.2984 10.4204C27.9292 10.0512 27.4284 9.84375 26.9062 9.84375C26.3841 9.84375 25.8833 10.0512 25.5141 10.4204C25.1449 10.7896 24.9375 11.2904 24.9375 11.8125V16.4062H26.25V14.4375H27.5625V16.4062H28.875ZM26.25 13.125V11.8125C26.25 11.6385 26.3191 11.4715 26.4422 11.3485C26.5653 11.2254 26.7322 11.1562 26.9062 11.1562C27.0803 11.1562 27.2472 11.2254 27.3703 11.3485C27.4934 11.4715 27.5625 11.6385 27.5625 11.8125V13.125H26.25Z" fill="#FFFBFA"/>
<path d="M30.1875 9.84375V15.75C30.1875 15.924 30.2566 16.091 30.3797 16.214C30.5028 16.3371 30.6697 16.4062 30.8438 16.4062H33.4688V15.0938H31.5V9.84375H30.1875Z" fill="#FFFBFA"/>
<path d="M38.0625 11.1562V9.84375H35.4375C35.2635 9.84375 35.0965 9.91289 34.9735 10.036C34.8504 10.159 34.7812 10.326 34.7812 10.5V15.75C34.7812 15.924 34.8504 16.091 34.9735 16.214C35.0965 16.3371 35.2635 16.4062 35.4375 16.4062H38.0625V15.0938H36.0938V13.7812H37.4062V12.4688H36.0938V11.1562H38.0625Z" fill="#FFFBFA"/>
<path d="M11.8109 7.96113C11.8125 7.93242 11.8125 7.90371 11.8125 7.875C11.8109 6.91906 11.5107 5.98751 10.9537 5.21058C10.3968 4.43364 9.61101 3.85015 8.70621 3.54169C7.80141 3.23322 6.82284 3.21519 5.90729 3.49012C4.99175 3.76505 4.18499 4.3192 3.59982 5.0751C3.01464 5.83099 2.68029 6.75085 2.6435 7.70608C2.60672 8.66131 2.86934 9.60416 3.39466 10.4028C3.91997 11.2015 4.68172 11.816 5.57342 12.1605C6.46511 12.5051 7.44217 12.5623 8.36801 12.3244L8.6945 13.595C7.50379 13.9026 6.24679 13.8308 5.09884 13.3897C3.95088 12.9486 2.9692 12.1603 2.29073 11.1346C1.61227 10.1089 1.27084 8.89704 1.31408 7.66803C1.35732 6.43901 1.78306 5.25413 2.53193 4.27866C3.2808 3.30319 4.31545 2.58577 5.49156 2.22646C6.66768 1.86716 7.92661 1.88389 9.09277 2.27432C10.2589 2.66475 11.2741 3.40941 11.9968 4.40443C12.7195 5.39946 13.1136 6.59523 13.1242 7.82496L11.8109 7.96113Z" fill="#70B421"/>
<path d="M10.5833 11.8958C10.2797 11.8958 9.98541 12.001 9.75068 12.1937C9.51594 12.3863 9.35527 12.6543 9.29602 12.9522C9.23677 13.25 9.28261 13.5591 9.42574 13.8269C9.56887 14.0947 9.80043 14.3046 10.081 14.4208C10.3615 14.537 10.6736 14.5524 10.9642 14.4643C11.2548 14.3761 11.5058 14.19 11.6746 13.9375C11.8433 13.685 11.9192 13.3819 11.8895 13.0797C11.8597 12.7775 11.7261 12.495 11.5114 12.2802C11.3898 12.158 11.2452 12.0611 11.0859 11.9951C10.9266 11.9291 10.7558 11.8953 10.5833 11.8958ZM10.5833 15.8333C10.1516 15.8333 9.7266 15.7268 9.34588 15.5233C8.96516 15.3198 8.64051 15.0256 8.40067 14.6667C8.16083 14.3077 8.01321 13.8952 7.9709 13.4656C7.92858 13.036 7.99287 12.6026 8.15807 12.2037C8.32326 11.8049 8.58427 11.453 8.91797 11.1791C9.25167 10.9052 9.64777 10.7179 10.0712 10.6337C10.4946 10.5495 10.9322 10.571 11.3453 10.6963C11.7584 10.8216 12.1342 11.0469 12.4394 11.3521C12.8065 11.7193 13.0565 12.187 13.1578 12.6962C13.259 13.2054 13.207 13.7331 13.0083 14.2128C12.8097 14.6924 12.4732 15.1024 12.0416 15.3908C11.6099 15.6792 11.1024 15.8332 10.5832 15.8332L10.5833 15.8333Z" fill="#FFFFFE"/>
<path d="M15.75 20.3438H24.9375V28.875H23.625L15.75 20.3438Z" fill="#70B421"/>
</svg>
