<svg width="42" height="36" viewBox="0 0 42 36" fill="none" xmlns="http://www.w3.org/2000/svg">
<path d="M17.6367 23.3402C17.6367 21.9062 17.6707 21.5372 17.5096 20.8719C17.0297 18.8966 15.2463 17.4258 13.125 17.4258H11.8125C9.31924 17.4258 7.30078 19.4546 7.30078 21.9375V23.3402C6.19992 23.4296 5.33203 24.3541 5.33203 25.4771V33.4916C5.33203 34.6745 6.29426 35.6367 7.47715 35.6367H17.4604C18.6432 35.6367 19.6055 34.6745 19.6055 33.4916V25.4771C19.6055 24.3541 18.7376 23.4296 17.6367 23.3402ZM9.76172 21.9375C9.76172 20.8068 10.6815 19.8867 11.8125 19.8867C13.0695 19.8867 14.1653 19.7092 14.8764 20.8711C15.2535 21.4882 15.1758 21.9076 15.1758 23.332H9.76172V21.9375Z" fill="#141A2B"/>
<path d="M36.4793 0.363281H5.5207C2.47652 0.363281 0 2.8398 0 5.88398V6.92578H42V5.88398C42 2.8398 39.5235 0.363281 36.4793 0.363281Z" fill="#88C540"/>
<path d="M0 23.5535C0 25.6379 1.16156 27.4557 2.87109 28.3942C2.87109 25.5685 2.49761 23.3408 4.84477 21.6996C5.14393 12.5971 19.796 12.6731 20.0927 21.6996C22.5346 23.407 22.0664 25.8959 22.0664 29.0742H36.4793C39.5235 29.0742 42 26.5977 42 23.5535V9.38672H0V23.5535ZM23.707 15.1847C23.707 13.526 25.0573 12.1758 26.7159 12.1758H33.6591C35.3177 12.1758 36.668 13.526 36.668 15.1847V16.8778C36.668 18.5365 35.3177 19.8867 33.6591 19.8867H26.7159C25.0573 19.8867 23.707 18.5365 23.707 16.8778V15.1847Z" fill="#70B421"/>
<path d="M26.716 17.4258C33.7191 17.4258 34.2071 17.6489 34.2071 16.8778C34.2071 15.4683 34.3879 14.6367 33.6591 14.6367C26.656 14.6367 26.168 14.4136 26.168 15.1847C26.168 16.5942 25.9872 17.4258 26.716 17.4258Z" fill="#B4D2D7"/>
</svg>
