<svg width="72" height="72" viewBox="0 0 72 72" fill="none" xmlns="http://www.w3.org/2000/svg">
<path d="M36 29.6719C32.5107 29.6719 29.6719 32.5107 29.6719 36C29.6719 39.4893 32.5107 42.3281 36 42.3281C39.4893 42.3281 42.3281 39.4893 42.3281 36C42.3281 32.5107 39.4893 29.6719 36 29.6719Z" fill="black"/>
<path d="M36 12.7969C23.2059 12.7969 12.7969 23.2059 12.7969 36C12.7969 48.7941 23.2059 59.3438 36 59.3438C48.7941 59.3438 59.2031 48.7941 59.2031 36C59.2031 23.2059 48.7941 12.7969 36 12.7969ZM25.558 49.4247C24.7341 50.2487 23.3992 50.2487 22.5753 49.4247C15.1721 42.0233 15.1721 29.9767 22.5753 22.5753C23.3992 21.7513 24.7341 21.7513 25.558 22.5753C26.382 23.3992 26.382 24.7341 25.558 25.558C19.8007 31.3154 19.8007 40.684 25.558 46.442C26.382 47.2659 26.382 48.6008 25.558 49.4247ZM36 46.5469C30.1849 46.5469 25.4531 41.8151 25.4531 36C25.4531 30.1849 30.1849 25.4531 36 25.4531C41.8151 25.4531 46.5469 30.1849 46.5469 36C46.5469 41.8151 41.8151 46.5469 36 46.5469ZM49.4247 49.4247C48.6008 50.2487 47.2659 50.2487 46.442 49.4247C45.618 48.6008 45.618 47.2659 46.442 46.442C52.1993 40.6846 52.1993 31.316 46.442 25.558C45.618 24.7341 45.618 23.3992 46.442 22.5753C47.2659 21.7513 48.6008 21.7513 49.4247 22.5753C56.8279 29.9767 56.8279 42.0233 49.4247 49.4247Z" fill="black"/>
<path d="M36 0C16.2268 0 0 16.2268 0 36C0 55.7732 16.2268 72 36 72C55.7732 72 72 55.7732 72 36C72 16.2268 55.7732 0 36 0ZM36 63.5625C20.8801 63.5625 8.57812 51.1199 8.57812 36C8.57812 20.8801 20.8801 8.57812 36 8.57812C51.1199 8.57812 63.4219 20.8801 63.4219 36C63.4219 51.1199 51.1199 63.5625 36 63.5625Z" fill="black"/>
<path d="M61.3124 0C59.4728 0 57.7693 0.513062 56.2637 1.34088C62.143 4.80597 67.194 9.85693 70.6591 15.7363C71.4874 14.2306 71.9999 12.5272 71.9999 10.6875C71.9999 4.86255 67.1374 0 61.3124 0Z" fill="black"/>
<path d="M56.2637 70.6591C57.7693 71.4875 59.4728 72 61.3124 72C67.1374 72 71.9999 67.2781 71.9999 61.4531C71.9999 59.6135 71.4869 57.91 70.6591 56.4044C67.194 62.2837 62.143 67.194 56.2637 70.6591Z" fill="black"/>
<path d="M1.34088 56.4044C0.513062 57.91 0 59.6135 0 61.4531C0 67.2781 4.86255 72 10.6875 72C12.5272 72 14.2306 71.4875 15.7363 70.6591C9.85693 67.194 4.80597 62.2837 1.34088 56.4044Z" fill="black"/>
<path d="M15.7363 1.34088C14.2306 0.513062 12.5272 0 10.6875 0C4.86255 0 0 4.86255 0 10.6875C0 12.5272 0.512512 14.2306 1.34088 15.7363C4.80597 9.85693 9.85693 4.80597 15.7363 1.34088Z" fill="black"/>
</svg>
